<?xml version="1.0" encoding="UTF-8" standalone="no"?>
<!-- Created with Inkscape (http://www.inkscape.org/) -->

<svg
   width="210mm"
   height="297mm"
   viewBox="0 0 210 297"
   version="1.1"
   id="svg5"
   xmlns="http://www.w3.org/2000/svg"
   xmlns:svg="http://www.w3.org/2000/svg">
  <defs
     id="defs2" />
  <g
     id="layer1">
    <path
       style="fill:#ffffff;stroke-width:0.424236;stroke:none;stroke-opacity:1;fill-opacity:1"
       d="m 33.991438,168.72791 0.04011,-25.56018 0.804019,2.54542 c 0.745634,2.36073 0.80441,4.1375 0.809768,24.48855 l 0.005,21.94318 6.46957,0.11725 c 6.345704,0.11475 6.472223,0.1353 6.605206,1.07163 l 0.135787,0.95454 h -7.453605 -7.453666 z m 16.930771,24.91792 c 0,-0.15133 -34.058017,-116.883743 -40.56576,-139.037375 -0.203433,-0.691822 0.445448,-0.742429 9.522557,-0.742429 7.412019,0 9.784367,0.126769 9.923662,0.530328 0.100715,0.29162 7.041439,25.48858 15.423923,55.993176 8.382484,30.50462 15.428175,55.4032 15.657057,55.33014 0.228993,-0.0732 1.851595,-5.02399 3.606024,-11.00221 1.754388,-5.97816 3.318616,-10.73614 3.475996,-10.57324 0.582293,0.60268 11.521716,19.80703 11.521113,20.22547 -4.02e-4,0.41038 -4.663924,16.39062 -7.399896,25.3579 l -1.262034,4.13631 h -9.951316 c -5.47325,0 -9.951326,-0.0982 -9.951326,-0.21797 z m 42.000911,-3.06973 0.002,-3.28785 0.846901,1.38901 c 0.465998,0.76397 0.846902,1.86171 0.846902,2.43939 0,0.63956 0.243016,1.05034 0.621427,1.05034 0.34172,0 0.825751,0.38181 1.075482,0.84845 0.422903,0.79048 0.322691,0.84846 -1.469877,0.84846 h -1.924092 l 0.002,-3.2878 z m 4.675847,1.06055 c -0.698036,-1.22496 -7.548259,-13.10307 -15.222685,-26.3958 l -13.953593,-24.16857 -6.310873,-0.015 c -5.982483,-0.0101 -6.317237,-0.0571 -6.432738,-0.86139 -0.118246,-0.82185 0.09922,-0.84609 6.933456,-0.77379 l 7.05526,0.0747 15.130082,26.228 15.130092,26.228 7.951172,0.11524 c 4.37315,0.0636 7.95117,7.1e-4 7.95117,-0.13929 0,-0.1403 -7.46734,-12.25332 -16.594115,-26.91792 -9.126761,-14.66465 -16.577914,-26.81986 -16.558171,-27.01162 0.02,-0.19191 1.223353,-0.48403 2.674682,-0.64983 3.71466,-0.4239 8.062457,-1.81917 12.023329,-3.85786 6.806545,-3.50335 12.636995,-10.93812 14.613745,-18.6349 0.78348,-3.05054 0.79761,-3.07042 1.2918,-1.8117 0.69013,1.75779 0.31668,3.95532 -1.23507,7.27177 -4.4629,9.53694 -12.898303,16.14566 -23.373187,18.31161 l -3.253467,0.67273 1.67406,2.66998 1.67406,2.66993 16.982484,0.11073 16.98248,0.11074 1.8278,6.15144 c 1.00528,3.3833 1.93762,6.58095 2.0718,7.10597 l 0.24402,0.95453 h -14.43211 c -7.93768,0 -14.43211,0.11023 -14.43211,0.24452 0,0.13428 4.42371,7.34116 9.83047,16.01492 5.40681,8.67376 10.19831,16.39092 10.64781,17.14923 l 0.81733,1.37874 H 109.08802 98.868067 Z m 23.420633,1.37879 c -0.52311,-0.83759 -0.42391,-0.84845 7.74628,-0.84845 7.99341,0 8.27621,0.0301 8.27621,0.84845 0,0.81749 -0.2826,0.84846 -7.74633,0.84846 -7.28686,0 -7.77775,-0.0502 -8.27616,-0.84846 z m 1.38635,-56.24932 c -9.3332,-31.39777 -17.14694,-57.082313 -17.3639,-57.076754 -0.3352,0.01005 -6.87813,21.630474 -10.029787,33.145484 -0.851968,3.11282 -1.273665,3.91032 -3.083261,5.8312 -3.385505,3.5936 -7.913541,5.39037 -14.881959,5.90512 -3.158825,0.2335 -3.748325,0.18038 -3.569242,-0.31918 0.118245,-0.32919 0.657494,-2.22162 1.198844,-4.20494 0.5414,-1.98327 1.726524,-6.08775 2.633609,-9.12107 2.180488,-7.29163 15.459739,-51.98115 16.295211,-54.83958 l 0.653142,-2.234354 10.831343,0.113241 10.8314,0.113241 16.43201,55.683972 c 9.03758,30.62623 16.55793,55.80996 16.71181,55.96383 0.15382,0.15383 0.35125,0.20042 0.43843,0.10322 0.13779,-0.15332 9.32123,-33.59342 13.03884,-47.47906 1.04938,-3.91949 2.42967,-8.69988 4.33988,-15.03035 0.27759,-0.91916 4.75893,5.42634 6.87002,9.72737 2.36618,4.8207 4.44054,11.69167 4.44054,14.70853 0,0.92207 -0.66506,3.90792 -1.47788,6.63528 -5.52782,18.54741 -17.1755,58.50631 -17.18136,58.94285 -0.005,0.40937 -2.30591,0.52902 -10.08275,0.52481 l -10.07559,-0.005 -16.96945,-57.0868 z m 40.94526,50.20396 c 0.0101,-0.91365 0.54886,-1.3837 3.38741,-2.96111 16.04232,-8.91506 26.43052,-24.24167 28.88394,-42.6148 0.68341,-5.11789 0.25405,-15.31464 -0.86629,-20.58324 -3.95085,-18.57579 -15.03313,-32.840046 -30.86752,-39.730408 -8.58326,-3.735046 -16.27172,-5.153867 -29.60418,-5.463269 -9.40171,-0.217965 -10.3665,-0.361774 -10.3873,-1.54544 -0.004,-0.205942 4.64473,-0.275585 10.49333,-0.157832 15.22383,0.307653 23.53526,2.023953 33.04555,6.824821 15.61683,7.883565 26.22525,22.935088 29.447,41.780298 1.04743,6.12699 1.11357,16.04184 0.1448,21.74041 -2.97021,17.47528 -13.68436,32.61489 -29.19235,41.25021 -3.75243,2.08944 -4.49521,2.33131 -4.48454,1.46026 z m -50.64145,-7.28415 -0.71717,-1.09453 h 10.35819 c 9.21691,0 10.38765,0.0767 10.62565,0.69708 0.14732,0.38332 0.15183,0.81293 0.0101,0.95454 -0.14129,0.14179 -4.60003,0.32068 -9.90847,0.39734 l -9.65178,0.13979 -0.71713,-1.09447 z m -4.63636,-7.41743 c -0.57958,-0.98118 -0.72785,-2.2773 -0.72785,-6.36354 0,-4.84862 0.0451,-5.13147 0.84851,-5.13147 0.81073,0 0.84846,0.2826 0.84846,6.36354 0,3.49995 -0.0541,6.36354 -0.12076,6.36354 -0.0661,0 -0.44795,-0.55443 -0.84846,-1.23207 z m 61.65227,-6.61908 c -0.0511,-1.24766 0.94657,-3.32868 2.66332,-5.55698 3.52024,-4.56902 6.37647,-11.39929 7.52095,-17.98531 0.76547,-4.40517 0.67584,-12.5748 -0.1874,-17.08605 -3.42875,-17.91749 -14.42173,-29.896171 -31.42511,-34.242823 -4.21497,-1.077442 -9.83542,-1.698065 -15.3916,-1.699412 -4.48944,-0.001 -4.77265,-0.05157 -4.77265,-0.849716 0,-0.805908 0.2821,-0.848299 5.62111,-0.845947 21.1508,0.01005 36.29382,8.661729 44.02186,25.152978 5.87916,12.54584 6.05703,29.2818 0.43893,41.28785 -0.88648,1.89438 -2.37635,4.56706 -3.31079,5.93934 -1.96859,2.8908 -5.15312,6.51039 -5.17852,5.88607 z M 93.003238,141.15626 c 0.0952,-1.31254 0.331205,-1.83747 0.872856,-1.94018 0.619367,-0.11725 0.742377,0.18088 0.742377,1.79938 0,1.67541 -0.119251,1.94013 -0.872856,1.94013 -0.764271,0 -0.856622,-0.22398 -0.742377,-1.79933 z m 14.342312,-4.49843 c 0,-5.75904 0.0727,-6.36348 0.84851,-7.06567 0.84526,-0.76494 0.84846,-0.74098 0.84846,6.29779 0,6.78284 -0.0351,7.06564 -0.84846,7.06564 -0.81037,0 -0.84851,-0.2826 -0.84851,-6.29776 z m -55.252602,-8.89447 c -0.213955,-0.81733 0.103217,-0.84144 13.623182,-1.03545 15.088003,-0.21646 17.587221,-0.55743 22.665021,-3.09148 4.784282,-2.38747 7.030311,-5.5248 9.251632,-12.92276 l 1.592244,-5.30298 0.02503,2.54542 c 0.07067,7.59797 -3.421733,13.82187 -9.587953,17.08597 -5.430698,2.87466 -7.640549,3.19589 -23.301668,3.3868 -13.699098,0.16686 -14.05285,0.15032 -14.266252,-0.66552 z m -2.655593,-9.62558 c -0.7736,-2.7076 -0.84846,-4.24232 -0.84846,-17.39367 V 86.320075 l 12.51498,-0.01508 c 10.794056,-0.01508 20.624322,0.347742 21.049928,0.773097 0.07067,0.07067 0.02503,0.521064 -0.100222,1.001185 -0.203932,0.77945 -0.417886,0.836276 -1.998299,0.530222 -0.97347,-0.188401 -8.019915,-0.351249 -15.658715,-0.361262 l -13.888746,-0.02 -0.11124,16.439173 -0.111239,16.43914 z M 185.87423,93.166186 c -2.30767,-2.991161 -6.85278,-7.29321 -10.1968,-9.651434 -1.41641,-0.998923 -2.57527,-2.083483 -2.57527,-2.410225 0,-0.326692 1.6227,-6.475029 3.60597,-13.66292 1.98332,-7.187892 3.60602,-13.182896 3.60602,-13.322243 0,-0.139295 4.39084,-0.253538 9.75741,-0.253538 5.36661,0 9.75746,0.121758 9.75746,0.271076 0,0.406365 -11.40963,39.694348 -11.79355,40.610048 -0.2851,0.6796 -0.58879,0.457473 -2.16124,-1.580915 z M 84.70834,76.056089 C 84.520441,75.86818 73.837464,75.618651 60.968279,75.502053 39.118243,75.304132 37.560328,75.241004 37.427094,74.547521 c -0.13429,-0.699182 1.11162,-0.742226 21.418417,-0.739371 20.594124,0.003 27.288264,0.20544 27.288264,0.825711 0,0.633842 -1.108313,1.739652 -1.425435,1.422228 z"
       id="path928" />
    <path
       style="fill:#ffffff;stroke:none;stroke-width:1.47782;paint-order:markers stroke fill;fill-opacity:1"
       d="m 697.55529,344.59546 c -6.46269,-7.27004 -18.52775,-18.49682 -26.81124,-24.94842 -17.74639,-13.82175 -17.66914,-5.40581 -0.63251,-68.91167 l 12.19316,-45.45135 35.811,-0.003 c 33.17925,-0.003 35.73845,0.24838 34.82381,3.41825 -0.54296,1.88171 -10.37326,35.97251 -21.84511,75.75732 -11.47185,39.78482 -21.06736,72.56579 -21.32334,72.8466 -0.25599,0.28082 -5.75309,-5.43764 -12.21577,-12.70768 z"
       id="path896"
       transform="scale(0.26458333)" />
  </g>
</svg>
